<svg width="65" height="65" viewBox="0 0 65 65" fill="none" xmlns="http://www.w3.org/2000/svg">
<path d="M46.7188 55.2094L41.4578 49.9485L38.5938 52.8125L46.7188 60.9375L60.9375 46.7188L58.0734 43.8547L46.7188 55.2094Z" fill="black"/>
<path d="M22.3438 18.2812C23.4656 18.2812 24.375 17.3718 24.375 16.25C24.375 15.1282 23.4656 14.2188 22.3438 14.2188C21.2219 14.2188 20.3125 15.1282 20.3125 16.25C20.3125 17.3718 21.2219 18.2812 22.3438 18.2812Z" fill="black"/>
<path d="M22.3438 34.5312C23.4656 34.5312 24.375 33.6218 24.375 32.5C24.375 31.3782 23.4656 30.4688 22.3438 30.4688C21.2219 30.4688 20.3125 31.3782 20.3125 32.5C20.3125 33.6218 21.2219 34.5312 22.3438 34.5312Z" fill="black"/>
<path d="M22.3438 50.7812C23.4656 50.7812 24.375 49.8718 24.375 48.75C24.375 47.6282 23.4656 46.7188 22.3438 46.7188C21.2219 46.7188 20.3125 47.6282 20.3125 48.75C20.3125 49.8718 21.2219 50.7812 22.3438 50.7812Z" fill="black"/>
<path d="M48.75 6.09375H16.25C15.1726 6.09375 14.1392 6.52176 13.3774 7.28363C12.6155 8.0455 12.1875 9.07881 12.1875 10.1562V54.8438C12.1875 55.9212 12.6155 56.9545 13.3774 57.7164C14.1392 58.4782 15.1726 58.9062 16.25 58.9062H32.5V54.8438H16.25V42.6562H52.8125V10.1562C52.8125 9.07881 52.3845 8.0455 51.6226 7.28363C50.8608 6.52176 49.8274 6.09375 48.75 6.09375ZM48.75 38.5938H16.25V26.4062H48.75V38.5938ZM48.75 22.3438H16.25V10.1562H48.75V22.3438Z" fill="black"/>
</svg>
