<svg width="65" height="65" viewBox="0 0 65 65" fill="none" xmlns="http://www.w3.org/2000/svg">
<path d="M56.2475 16.8775L59.1209 14.0041C57.4118 12.1505 55.3371 10.6711 53.0278 9.65925C50.7184 8.6474 48.2244 8.125 45.7031 8.125C43.1818 8.125 40.6879 8.6474 38.3785 9.65925C36.0692 10.6711 33.9945 12.1505 32.2853 14.0041L35.1588 16.8775C36.4901 15.4012 38.1166 14.2209 39.933 13.413C41.7494 12.6051 43.7152 12.1876 45.7031 12.1876C47.6911 12.1876 49.6569 12.6051 51.4733 13.413C53.2897 14.2209 54.9162 15.4012 56.2475 16.8775Z" fill="black"/>
<path d="M38.0371 19.7558L40.9189 22.6377C41.488 21.913 42.2144 21.3271 43.0431 20.9242C43.8718 20.5214 44.7812 20.312 45.7026 20.312C46.6241 20.312 47.5335 20.5214 48.3622 20.9242C49.1909 21.3271 49.9172 21.913 50.4863 22.6377L53.3682 19.7558C52.4168 18.6556 51.2397 17.773 49.9169 17.1681C48.5941 16.5632 47.1566 16.2501 45.7021 16.2501C44.2476 16.2501 42.8101 16.5632 41.4873 17.1681C40.1645 17.773 38.9874 18.6556 38.036 19.7558H38.0371ZM59.9219 35.5469H47.7344V27.4219H43.6719V35.5469H5.07812C4.27035 35.5479 3.49595 35.8692 2.92477 36.4404C2.35359 37.0116 2.03226 37.786 2.03125 38.5938V52.8125C2.03226 53.6203 2.35359 54.3947 2.92477 54.9659C3.49595 55.5371 4.27035 55.8584 5.07812 55.8594H59.9219C60.7296 55.8584 61.504 55.5371 62.0752 54.9659C62.6464 54.3947 62.9677 53.6203 62.9688 52.8125V38.5938C62.9677 37.786 62.6464 37.0116 62.0752 36.4404C61.504 35.8692 60.7296 35.5479 59.9219 35.5469ZM58.9062 51.7969H6.09375V39.6094H58.9062V51.7969Z" fill="black"/>
<path d="M12.1875 43.6719H16.25V47.7344H12.1875V43.6719ZM22.3438 43.6719H26.4062V47.7344H22.3438V43.6719ZM32.5 43.6719H36.5625V47.7344H32.5V43.6719Z" fill="black"/>
</svg>
