<svg width="64" height="64" viewBox="0 0 64 64" fill="none" xmlns="http://www.w3.org/2000/svg">
<g clip-path="url(#clip0_3_15)">
<path d="M10.6667 16H14.2222V19.5556H10.6667V16Z" fill="black"/>
<path d="M17.7778 16H42.6667V19.5556H17.7778V16Z" fill="black"/>
<path d="M10.6667 30.2222H14.2222V33.7778H10.6667V30.2222Z" fill="black"/>
<path d="M17.7778 30.2222H42.6667V33.7778H17.7778V30.2222Z" fill="black"/>
<path d="M56.8889 8.88892H7.1111C6.16811 8.88892 5.26374 9.26352 4.59694 9.93031C3.93014 10.5971 3.55554 11.5015 3.55554 12.4445V51.5556C3.55554 52.4986 3.93014 53.4029 4.59694 54.0697C5.26374 54.7365 6.16811 55.1111 7.1111 55.1111H56.8889C57.8319 55.1111 58.7362 54.7365 59.403 54.0697C60.0698 53.4029 60.4444 52.4986 60.4444 51.5556V12.4445C60.4444 11.5015 60.0698 10.5971 59.403 9.93031C58.7362 9.26352 57.8319 8.88892 56.8889 8.88892ZM7.1111 12.4445H56.8889V23.1111H7.1111V12.4445ZM7.1111 26.6667H56.8889V37.3334H7.1111V26.6667ZM7.1111 51.5556V40.8889H56.8889V51.5556H7.1111Z" fill="black"/>
<path d="M10.6667 44.4445H14.2222V48H10.6667V44.4445Z" fill="black"/>
<path d="M17.7778 44.4445H42.6667V48H17.7778V44.4445Z" fill="black"/>
</g>
<defs>
<clipPath id="clip0_3_15">
<rect width="64" height="64" fill="white"/>
</clipPath>
</defs>
</svg>
