<svg width="64" height="64" viewBox="0 0 64 64" fill="none" xmlns="http://www.w3.org/2000/svg">
<path d="M32 10.6667C20.2373 10.6667 10.6666 20.28 10.6666 32.1787V34.6667H16C18.1217 34.6667 20.1565 35.5095 21.6568 37.0098C23.1571 38.5101 24 40.5449 24 42.6667V48C24 50.1217 23.1571 52.1566 21.6568 53.6569C20.1565 55.1572 18.1217 56 16 56H5.33331V32.1787C5.33331 17.3707 17.2533 5.33334 32 5.33334C46.7466 5.33334 58.6666 17.3707 58.6666 32.1787V56H48C45.8782 56 43.8434 55.1572 42.3431 53.6569C40.8428 52.1566 40 50.1217 40 48V42.6667C40 40.5449 40.8428 38.5101 42.3431 37.0098C43.8434 35.5095 45.8782 34.6667 48 34.6667H53.3333V32.1787C53.3333 20.28 43.7626 10.6667 32 10.6667ZM53.3333 40H48C47.2927 40 46.6145 40.281 46.1144 40.7811C45.6143 41.2812 45.3333 41.9594 45.3333 42.6667V48C45.3333 48.7073 45.6143 49.3855 46.1144 49.8856C46.6145 50.3857 47.2927 50.6667 48 50.6667H53.3333V40ZM10.6666 40V50.6667H16C16.7072 50.6667 17.3855 50.3857 17.8856 49.8856C18.3857 49.3855 18.6666 48.7073 18.6666 48V42.6667C18.6666 41.9594 18.3857 41.2812 17.8856 40.7811C17.3855 40.281 16.7072 40 16 40H10.6666Z" fill="black"/>
</svg>
