<svg width="64" height="64" viewBox="0 0 64 64" fill="none" xmlns="http://www.w3.org/2000/svg">
<path d="M24.5787 7.33332H43.9013C44.1342 7.33251 44.3636 7.3898 44.5687 7.50001C44.7739 7.61021 44.9483 7.76985 45.0762 7.96447C45.2041 8.15908 45.2814 8.38252 45.3012 8.61456C45.3209 8.84659 45.2825 9.07989 45.1893 9.29332L37.6293 26.9387H50.3733C50.48 26.9397 50.5842 26.9713 50.6736 27.0296C50.763 27.0879 50.8338 27.1706 50.8778 27.2678C50.9218 27.365 50.9371 27.4728 50.9219 27.5784C50.9067 27.684 50.8616 27.7831 50.792 27.864L24.8026 56.4267C24.7317 56.5327 24.6251 56.6098 24.5022 56.644C24.3793 56.6781 24.2483 56.6671 24.1328 56.6129C24.0173 56.5587 23.9251 56.465 23.8728 56.3486C23.8206 56.2322 23.8118 56.101 23.848 55.9787L26.4267 35.3387H14.496C14.2643 35.3418 14.0354 35.2875 13.8298 35.1806C13.6242 35.0736 13.4483 34.9174 13.3178 34.7259C13.1874 34.5344 13.1064 34.3136 13.0821 34.0832C13.0578 33.8527 13.091 33.6198 13.1787 33.4053L23.2587 8.19999C23.3655 7.93899 23.5487 7.71635 23.7842 7.56123C24.0198 7.40611 24.2967 7.32841 24.5787 7.33332Z" stroke="black" stroke-width="1.5" stroke-linecap="round" stroke-linejoin="round"/>
</svg>
