<svg width="65" height="64" viewBox="0 0 65 64" fill="none" xmlns="http://www.w3.org/2000/svg">
<path d="M39 41H62V45.6667H39V41ZM39 50.3333H52.8V55H39V50.3333Z" fill="black"/>
<path d="M65 34.2581V31.9703C64.9937 25.326 62.8871 18.8483 58.9724 13.4363C55.0577 8.02428 49.5291 3.94627 43.1538 1.7682C36.7786 -0.409874 29.8728 -0.579986 23.3949 1.28147C16.917 3.14293 11.1882 6.94363 7.00354 12.1562C2.81888 17.3687 0.385889 23.7345 0.0421945 30.3702C-0.3015 37.0059 1.46115 43.5824 5.08554 49.187C8.70993 54.7916 14.0163 59.1465 20.2683 61.6471C26.5202 64.1478 33.4077 64.6703 39.975 63.1421L38.9061 58.69C36.797 59.1802 34.6369 59.4267 32.4698 59.4244C32.0283 59.4244 31.5984 59.3809 31.1616 59.3626C26.1192 51.9207 23.367 43.2032 23.2359 34.2581H65ZM60.2576 29.6825H46.3532C46.0934 21.2529 43.8892 12.992 39.9076 5.52518C45.3977 7.02692 50.2899 10.1461 53.9278 14.4641C57.5657 18.7822 59.7729 24.0925 60.2576 29.6825ZM33.778 4.57801C38.8204 12.0199 41.5726 20.7374 41.7037 29.6825H23.2359C23.367 20.7374 26.1192 12.0199 31.1616 4.57801C31.5984 4.562 32.0283 4.51624 32.4698 4.51624C32.9113 4.51624 33.3411 4.55971 33.778 4.57801ZM25.032 5.52518C21.0504 12.992 18.8462 21.2529 18.5864 29.6825H4.68435C5.16868 24.0931 7.37753 18.7832 11.0146 14.4652C14.6516 10.1472 19.5428 7.02771 25.032 5.52518ZM25.032 58.4154C19.5428 56.9129 14.6516 53.7934 11.0146 49.4754C7.37753 45.1574 5.16868 39.8476 4.68435 34.2581H18.5864C18.8462 42.6877 21.0504 50.9486 25.032 58.4154Z" fill="black"/>
</svg>
