<svg width="63" height="63" viewBox="0 0 63 63" fill="none" xmlns="http://www.w3.org/2000/svg">
<path d="M59.7125 11.675C59.1058 11.675 58.524 11.434 58.095 11.005C57.666 10.576 57.425 9.99418 57.425 9.3875C57.425 8.78082 57.666 8.19898 58.095 7.76999C58.524 7.341 59.1058 7.1 59.7125 7.1C60.3192 7.1 60.901 7.341 61.33 7.76999C61.759 8.19898 62 8.78082 62 9.3875C62 9.99418 61.759 10.576 61.33 11.005C60.901 11.434 60.3192 11.675 59.7125 11.675ZM59.7125 11.675V23.1125C59.7125 25.2414 59.7125 26.3058 59.4502 27.169C59.1594 28.1292 58.6362 29.0029 57.927 29.7126C57.2179 30.4223 56.3446 30.9462 55.3845 31.2377C54.5183 31.5 53.4539 31.5 51.325 31.5M3.2875 51.325C3.89418 51.325 4.47602 51.566 4.90501 51.995C5.334 52.424 5.575 53.0058 5.575 53.6125C5.575 54.2192 5.334 54.801 4.90501 55.23C4.47602 55.659 3.89418 55.9 3.2875 55.9C2.68082 55.9 2.09898 55.659 1.66999 55.23C1.241 54.801 1 54.2192 1 53.6125C1 53.0058 1.241 52.424 1.66999 51.995C2.09898 51.566 2.68082 51.325 3.2875 51.325ZM3.2875 51.325V39.8875C3.2875 37.7586 3.2875 36.6941 3.5498 35.831C3.84061 34.8708 4.36379 33.9971 5.07297 33.2874C5.78214 32.5777 6.65543 32.0538 7.61545 31.7623C8.48165 31.5 9.5461 31.5 11.675 31.5M11.675 3.2875C11.675 3.89418 11.434 4.47602 11.005 4.90501C10.576 5.334 9.99418 5.575 9.3875 5.575C8.78082 5.575 8.19898 5.334 7.76999 4.90501C7.341 4.47602 7.1 3.89418 7.1 3.2875C7.1 2.68082 7.341 2.09898 7.76999 1.66999C8.19898 1.241 8.78082 1 9.3875 1C9.99418 1 10.576 1.241 11.005 1.66999C11.434 2.09898 11.675 2.68082 11.675 3.2875ZM11.675 3.2875H23.1125C25.2414 3.2875 26.3058 3.2875 27.169 3.5498C28.1296 3.8409 29.0035 4.36454 29.7132 5.07427C30.423 5.78401 30.9466 6.65792 31.2377 7.6185C31.5 8.48165 31.5 9.5461 31.5 11.675M51.325 59.7125C51.325 59.1058 51.566 58.524 51.995 58.095C52.424 57.666 53.0058 57.425 53.6125 57.425C54.2192 57.425 54.801 57.666 55.23 58.095C55.659 58.524 55.9 59.1058 55.9 59.7125C55.9 60.3192 55.659 60.901 55.23 61.33C54.801 61.759 54.2192 62 53.6125 62C53.0058 62 52.424 61.759 51.995 61.33C51.566 60.901 51.325 60.3192 51.325 59.7125ZM51.325 59.7125H39.8875C37.7586 59.7125 36.6941 59.7125 35.831 59.4502C34.8708 59.1594 33.9971 58.6362 33.2874 57.927C32.5777 57.2179 32.0538 56.3446 31.7623 55.3845C31.5 54.5183 31.5 53.4539 31.5 51.325" stroke="black" stroke-width="1.5" stroke-linejoin="round"/>
<path d="M11.8244 31.3506C11.8244 22.0054 11.8244 17.3328 14.728 14.4292C17.6316 11.5256 22.3042 11.5256 31.6494 11.5256C40.9946 11.5256 45.6672 11.5256 48.5708 14.4292C51.4744 17.3328 51.4744 22.0054 51.4744 31.3506C51.4744 40.6958 51.4744 45.3684 48.5708 48.272C45.6672 51.1756 40.9946 51.1756 31.6494 51.1756C22.3042 51.1756 17.6316 51.1756 14.728 48.272C11.8244 45.3684 11.8244 40.6958 11.8244 31.3506Z" stroke="black" stroke-width="1.5" stroke-linejoin="round"/>
<path d="M33.022 39.125L28.569 25.336C28.4145 24.9008 28.1269 24.5255 27.7469 24.2632C27.3669 24.0009 26.9139 23.8651 26.4523 23.875C25.9912 23.8657 25.5389 24.0019 25.1595 24.2641C24.7801 24.5263 24.4929 24.9013 24.3386 25.336L19.8856 39.125M40.647 23.875V39.125M21.5235 34.55H31.3811" stroke="black" stroke-width="1.5" stroke-linecap="round" stroke-linejoin="round"/>
</svg>
