<svg width="48" height="61" viewBox="0 0 48 61" fill="none" xmlns="http://www.w3.org/2000/svg">
<path fill-rule="evenodd" clip-rule="evenodd" d="M44.4358 47.373C45.1021 47.3738 45.7429 47.6306 46.2274 48.0911C46.7119 48.5516 47.0034 49.181 47.0425 49.8506C47.0815 50.5203 46.8651 51.1796 46.4375 51.694C46.0099 52.2084 45.4033 52.539 44.7417 52.6183L44.4358 52.6367H26.1375C25.4712 52.6359 24.8304 52.3791 24.3459 51.9186C23.8614 51.4581 23.5699 50.8287 23.5308 50.1591C23.4918 49.4894 23.7082 48.8301 24.1358 48.3157C24.5634 47.8013 25.17 47.4707 25.8316 47.3914L26.1375 47.373H44.4358ZM46.0853 8.86402C46.6923 9.47501 47.1738 10.2004 47.5024 10.9988C47.8309 11.7972 48 12.6529 48 13.5171C48 14.3813 47.8309 15.237 47.5024 16.0354C47.1738 16.8338 46.6923 17.5592 46.0853 18.1702L17.6026 46.8466C17.2701 47.1815 16.8805 47.4534 16.4524 47.6494L6.50855 52.1998C4.30752 53.2078 2.04375 50.926 3.04493 48.71L7.56724 38.6985C7.7611 38.2677 8.03026 37.8754 8.36192 37.5405L36.8446 8.86402C38.0701 7.63054 39.7321 6.9376 41.465 6.9376C43.1978 6.9376 44.8598 7.63054 46.0853 8.86402ZM40.5435 12.5854L12.2229 41.0935L10.6832 44.5069L14.071 42.9542L42.389 14.4488C42.5139 14.3274 42.6134 14.1822 42.6819 14.0216C42.7504 13.8611 42.7865 13.6884 42.788 13.5137C42.7895 13.339 42.7564 13.1657 42.6907 13.004C42.625 12.8422 42.528 12.6953 42.4052 12.5718C42.2825 12.4482 42.1366 12.3505 41.9759 12.2843C41.8153 12.2182 41.6432 12.1849 41.4697 12.1864C41.2961 12.1879 41.1246 12.2242 40.9652 12.2932C40.8057 12.3621 40.6615 12.4624 40.5409 12.5881M10.4532 0C10.9984 0.00021904 11.53 0.172107 11.9734 0.491599C12.4168 0.811091 12.7499 1.26219 12.9261 1.78175L13.2659 2.77659C13.6528 3.91815 14.2943 4.95531 15.1412 5.80844C15.9881 6.66157 17.0179 7.308 18.1515 7.69811L19.1397 8.03762C19.6551 8.21546 20.1025 8.55104 20.4193 8.99744C20.736 9.44383 20.9063 9.97873 20.9063 10.5273C20.9063 11.0759 20.736 11.6108 20.4193 12.0572C20.1025 12.5036 19.6551 12.8392 19.1397 13.0171L18.1515 13.3592C17.0177 13.7487 15.9875 14.3946 15.1402 15.2472C14.2928 16.0999 13.6507 17.1367 13.2633 18.2781L12.9261 19.2729C12.7494 19.7919 12.4161 20.2423 11.9727 20.5613C11.5293 20.8802 10.9981 21.0516 10.4532 21.0516C9.90825 21.0516 9.37697 20.8802 8.93359 20.5613C8.49021 20.2423 8.1569 19.7919 7.98026 19.2729L7.64044 18.2781C7.25357 17.1365 6.61206 16.0994 5.76514 15.2462C4.91823 14.3931 3.88842 13.7467 2.75478 13.3566L1.76666 13.0171C1.25119 12.8392 0.803793 12.5036 0.487037 12.0572C0.170282 11.6108 0 11.0759 0 10.5273C0 9.97873 0.170282 9.44383 0.487037 8.99744C0.803793 8.55104 1.25119 8.21546 1.76666 8.03762L2.75478 7.69548C3.88863 7.30598 4.91878 6.6601 5.76614 5.80743C6.61351 4.95475 7.25558 3.91795 7.64305 2.77659L7.98026 1.78175C8.15639 1.26219 8.48948 0.811091 8.9329 0.491599C9.37633 0.172107 9.90788 0.00021904 10.4532 0ZM10.4532 8.41134C9.83479 9.19484 9.12966 9.90476 8.35146 10.5273C9.13219 11.1502 9.83276 11.8555 10.4532 12.6433C11.0718 11.8573 11.7724 11.152 12.5549 10.5273C11.7767 9.90476 11.0715 9.19484 10.4532 8.41134Z" fill="black"/>
</svg>
