<svg width="64" height="64" viewBox="0 0 64 64" fill="none" xmlns="http://www.w3.org/2000/svg">
<path d="M27.47 38.992L24.41 35.932C24.1823 35.7109 23.8774 35.5872 23.56 35.5872C23.2426 35.5872 22.9377 35.7109 22.71 35.932C22.4889 36.1597 22.3652 36.4646 22.3652 36.782C22.3652 37.0994 22.4889 37.4043 22.71 37.632L25.77 40.692C26.23 41.152 26.99 41.152 27.47 40.692C27.95 40.232 27.95 39.472 27.47 38.992ZM20.39 39.972L23.45 43.032C23.91 43.492 23.91 44.252 23.45 44.732C23.2223 44.9531 22.9174 45.0768 22.6 45.0768C22.2826 45.0768 21.9777 44.9531 21.75 44.732L18.69 41.672C18.4689 41.4443 18.3452 41.1394 18.3452 40.822C18.3452 40.5046 18.4689 40.1997 18.69 39.972C18.9177 39.7509 19.2226 39.6272 19.54 39.6272C19.8574 39.6272 20.1623 39.7509 20.39 39.972Z" fill="black"/>
<path d="M54.97 4.832C54.8996 4.66612 54.7971 4.5158 54.6683 4.38972C54.5396 4.26363 54.3872 4.16426 54.2198 4.09733C54.0525 4.03041 53.8736 3.99725 53.6934 3.99977C53.5133 4.00228 53.3353 4.04043 53.17 4.112C52.47 4.412 52.15 5.212 52.45 5.912C52.59 6.232 52.83 6.452 53.13 6.592C53.39 6.712 53.61 6.892 53.73 7.152L54.05 7.888L52.184 8.748L51.87 8.032C51.7637 7.77022 51.7565 7.47865 51.85 7.212C51.93 6.932 51.93 6.592 51.81 6.272C51.7396 6.10612 51.6371 5.9558 51.5083 5.82972C51.3796 5.70363 51.2271 5.60426 51.0598 5.53733C50.8925 5.47041 50.7136 5.43725 50.5334 5.43977C50.3533 5.44228 50.1753 5.48043 50.01 5.552C49.31 5.852 48.99 6.652 49.29 7.352C49.43 7.672 49.67 7.892 49.97 8.032C50.23 8.152 50.45 8.332 50.57 8.592L50.898 9.342L49.012 10.212L48.692 9.472C48.6343 9.3435 48.6029 9.2048 48.5994 9.06401C48.596 8.92322 48.6207 8.78316 48.672 8.652C48.7785 8.34495 48.7642 8.00889 48.632 7.712C48.5616 7.54612 48.459 7.3958 48.3303 7.26972C48.2016 7.14363 48.0491 7.04426 47.8818 6.97733C47.7145 6.91041 47.5356 6.87725 47.3554 6.87977C47.1753 6.88228 46.9973 6.92043 46.832 6.992C46.132 7.292 45.812 8.092 46.112 8.792C46.252 9.112 46.492 9.332 46.792 9.472C47.052 9.592 47.272 9.772 47.392 10.032L47.726 10.804L46.97 11.152C46.775 11.2621 46.606 11.4129 46.4744 11.5942C46.3429 11.7754 46.2519 11.9829 46.2077 12.2024C46.1635 12.422 46.1671 12.6484 46.2182 12.8665C46.2693 13.0845 46.3668 13.289 46.504 13.466L46.35 13.312L29.234 30.428C28.7593 29.2188 28.6442 27.8981 28.9025 26.625C29.1608 25.3519 29.7816 24.1806 30.69 23.252C31.89 22.032 31.95 20.072 30.75 18.852C29.55 17.632 27.57 17.632 26.37 18.832C24.51 20.692 23.33 22.992 22.85 25.412C22.31 28.132 20.01 30.112 17.25 30.372C13.93 30.672 10.71 32.092 8.18997 34.632C2.52997 40.352 2.60997 49.772 8.38997 55.372C14.09 60.912 23.21 60.852 28.85 55.212C31.2714 52.7796 32.7584 49.5718 33.05 46.152C33.1677 44.8137 33.717 43.5498 34.6152 42.5507C35.5133 41.5516 36.7117 40.8712 38.03 40.612C39.13 40.392 40.21 40.012 41.25 39.492C42.77 38.732 43.39 36.872 42.63 35.352C42.2627 34.6212 41.6209 34.0657 40.845 33.807C40.069 33.5484 39.2223 33.6077 38.49 33.972C37.6408 34.4004 36.71 34.6425 35.7598 34.6821C34.8096 34.7218 33.8618 34.5581 32.98 34.202L50.104 17.08C50.2677 17.2216 50.4592 17.3276 50.6661 17.3912C50.8731 17.4548 51.091 17.4746 51.306 17.4494C51.521 17.4242 51.7284 17.3545 51.915 17.2447C52.1017 17.135 52.2634 16.9876 52.39 16.812L54.55 13.192C54.79 12.792 55.27 12.612 55.71 12.792C56.85 13.232 58.19 12.992 59.07 12.032C60.15 10.872 60.17 9.052 59.11 7.892C58.11 6.794 56.698 6.736 55.326 7.306L55.01 6.612C54.9037 6.35022 54.8966 6.05865 54.99 5.792C55.11 5.492 55.11 5.152 54.97 4.832ZM26.41 30.392C27.022 30.746 27.462 31.338 27.618 32.044L27.29 32.372C26.79 32.872 26.79 33.672 27.29 34.152L29.27 36.132C29.758 36.62 30.532 36.632 31.016 36.168C31.596 36.324 32.486 36.45 33.062 36.532L33.47 36.592C33.5193 36.6013 33.566 36.608 33.61 36.612C33.654 36.616 33.7006 36.6227 33.75 36.632L33.784 36.636C34.176 36.68 35.29 36.806 36.59 36.552C36.674 36.5373 36.7593 36.5207 36.846 36.502C37.58 36.354 38.436 36.182 38.81 37.252C38.95 37.612 38.83 38.032 38.31 38.372C38.01 38.572 37.27 38.852 36.93 38.932C35.29 39.312 34.13 39.972 33.05 41.152C31.61 42.512 30.73 44.152 30.41 45.932C30.17 47.292 29.93 48.632 29.37 49.872C28.77 51.152 27.97 52.312 26.95 53.332C25.79 54.512 24.43 55.392 22.93 55.992C21.53 56.552 19.91 55.892 19.37 54.492C19.25 54.192 19.19 53.852 19.19 53.532C19.196 53.028 19.316 52.462 19.442 51.868C19.762 50.366 20.118 48.68 18.77 47.332L14.27 42.832C12.27 40.832 12.23 37.572 14.21 35.532L14.25 35.492C15.83 33.892 17.91 33.072 20.09 32.992C21.39 32.932 22.51 32.272 23.13 31.252C23.63 30.432 24.55 29.992 25.49 30.092C25.81 30.132 26.13 30.232 26.41 30.392ZM18.73 49.532C18.93 49.732 18.93 50.052 18.71 50.232L16.59 52.352C16.39 52.552 16.07 52.552 15.87 52.352L11.05 47.532C10.85 47.332 10.85 47.012 11.05 46.812L13.19 44.712C13.39 44.512 13.71 44.512 13.91 44.712L18.73 49.532Z" fill="black"/>
</svg>
