<svg width="63" height="63" viewBox="0 0 63 63" fill="none" xmlns="http://www.w3.org/2000/svg">
<path d="M52.5 36.75H10.5C7.6005 36.75 5.25 39.1005 5.25 42V52.5C5.25 55.3995 7.6005 57.75 10.5 57.75H52.5C55.3995 57.75 57.75 55.3995 57.75 52.5V42C57.75 39.1005 55.3995 36.75 52.5 36.75Z" stroke="black" stroke-width="2" stroke-linecap="round" stroke-linejoin="round"/>
<path d="M15.7763 47.25H15.75M26.2763 47.25H26.25M39.375 26.25V36.75M46.83 18.8212C45.8548 17.845 44.6968 17.0705 43.4221 16.5421C42.1474 16.0137 40.7811 15.7417 39.4013 15.7417C38.0214 15.7417 36.6551 16.0137 35.3804 16.5421C34.1057 17.0705 32.9477 17.845 31.9725 18.8212M54.2325 11.3925C50.2946 7.45719 44.9553 5.24658 39.3881 5.24658C33.821 5.24658 28.4816 7.45719 24.5438 11.3925" stroke="black" stroke-width="2" stroke-linecap="round" stroke-linejoin="round"/>
</svg>
