<svg width="64" height="64" viewBox="0 0 64 64" fill="none" xmlns="http://www.w3.org/2000/svg">
<path d="M50.6667 5.33334H13.3334C11.8606 5.33334 10.6667 6.52725 10.6667 8.00001V56C10.6667 57.4728 11.8606 58.6667 13.3334 58.6667H50.6667C52.1394 58.6667 53.3334 57.4728 53.3334 56V8.00001C53.3334 6.52725 52.1394 5.33334 50.6667 5.33334Z" stroke="black" stroke-width="2" stroke-linecap="round" stroke-linejoin="round"/>
<path d="M32 26.6667C35.6819 26.6667 38.6667 23.6819 38.6667 20C38.6667 16.3181 35.6819 13.3333 32 13.3333C28.3181 13.3333 25.3334 16.3181 25.3334 20C25.3334 23.6819 28.3181 26.6667 32 26.6667Z" stroke="black" stroke-width="2"/>
<path d="M18.6667 16C20.1394 16 21.3333 14.8061 21.3333 13.3334C21.3333 11.8606 20.1394 10.6667 18.6667 10.6667C17.1939 10.6667 16 11.8606 16 13.3334C16 14.8061 17.1939 16 18.6667 16Z" fill="black"/>
<path d="M18.6667 53.3333C20.1394 53.3333 21.3333 52.1394 21.3333 50.6667C21.3333 49.1939 20.1394 48 18.6667 48C17.1939 48 16 49.1939 16 50.6667C16 52.1394 17.1939 53.3333 18.6667 53.3333Z" fill="black"/>
<path d="M45.3334 16C46.8061 16 48 14.8061 48 13.3334C48 11.8606 46.8061 10.6667 45.3334 10.6667C43.8606 10.6667 42.6667 11.8606 42.6667 13.3334C42.6667 14.8061 43.8606 16 45.3334 16Z" fill="black"/>
<path d="M45.3334 53.3333C46.8061 53.3333 48 52.1394 48 50.6667C48 49.1939 46.8061 48 45.3334 48C43.8606 48 42.6667 49.1939 42.6667 50.6667C42.6667 52.1394 43.8606 53.3333 45.3334 53.3333Z" fill="black"/>
<path d="M32 50.6667C36.4183 50.6667 40 47.085 40 42.6667C40 38.2484 36.4183 34.6667 32 34.6667C27.5817 34.6667 24 38.2484 24 42.6667C24 47.085 27.5817 50.6667 32 50.6667Z" stroke="black" stroke-width="2"/>
</svg>
