<svg width="64" height="64" viewBox="0 0 64 64" fill="none" xmlns="http://www.w3.org/2000/svg">
<path d="M16 5.12001C16 3.35041 14.5664 3.20001 12.8 3.20001C11.0304 3.20001 9.60001 3.35041 9.60001 5.12001V32H16V5.12001ZM9.60001 58.88C9.60001 60.6432 11.0304 60.8 12.8 60.8C14.5696 60.8 16 60.6432 16 58.88V48H9.60001V58.88ZM20.4768 35.2H5.11681C3.34721 35.2 3.20001 36.6336 3.20001 38.4V41.6C3.20001 43.3696 3.34721 44.8 5.11681 44.8H20.48C22.24 44.8 22.4 43.3696 22.4 41.6V38.4C22.4 36.6336 22.24 35.2 20.4768 35.2ZM58.8768 38.4H43.5136C41.7472 38.4 41.6 39.8336 41.6 41.6V44.8C41.6 46.5696 41.7472 48 43.5168 48H58.88C60.64 48 60.8 46.5696 60.8 44.8V41.6C60.8 39.8336 60.64 38.4 58.8768 38.4ZM41.6 22.4C41.6 20.6336 41.44 19.2 39.6768 19.2H24.3168C22.5472 19.2 22.4 20.6336 22.4 22.4V25.6C22.4 27.3696 22.5472 28.8 24.3168 28.8H39.68C41.44 28.8 41.6 27.3696 41.6 25.6V22.4ZM35.2 5.12001C35.2 3.35041 33.7664 3.20001 32 3.20001C30.2304 3.20001 28.8 3.35041 28.8 5.12001V16H35.2V5.12001ZM28.8 58.88C28.8 60.6432 30.2304 60.8 32 60.8C33.7696 60.8 35.2 60.6432 35.2 58.88V32H28.8V58.88ZM54.4 5.12001C54.4 3.35041 52.9664 3.20001 51.2 3.20001C49.4304 3.20001 48 3.35041 48 5.12001V35.2H54.4V5.12001ZM48 58.88C48 60.6432 49.4304 60.8 51.2 60.8C52.9696 60.8 54.4 60.6432 54.4 58.88V51.2H48V58.88Z" fill="black"/>
</svg>
